<?xml version="1.0" encoding="UTF-8" standalone="no"?>
<!-- Created with Inkscape (http://www.inkscape.org/) -->

<svg
   width="170mm"
   height="190mm"
   viewBox="0 0 170 190"
   version="1.1"
   id="svg1"
   inkscape:version="1.3.2 (091e20ef0f, 2023-11-25, custom)"
   sodipodi:docname="multiplexed.svg"
   xml:space="preserve"
   xmlns:inkscape="http://www.inkscape.org/namespaces/inkscape"
   xmlns:sodipodi="http://sodipodi.sourceforge.net/DTD/sodipodi-0.dtd"
   xmlns="http://www.w3.org/2000/svg"
   xmlns:svg="http://www.w3.org/2000/svg"><sodipodi:namedview
     id="namedview1"
     pagecolor="#ffffff"
     bordercolor="#000000"
     borderopacity="0.25"
     inkscape:showpageshadow="2"
     inkscape:pageopacity="0.0"
     inkscape:pagecheckerboard="0"
     inkscape:deskcolor="#d1d1d1"
     inkscape:document-units="mm"
     showgrid="true"
     inkscape:zoom="0.7786055"
     inkscape:cx="169.53387"
     inkscape:cy="421.26597"
     inkscape:window-width="2516"
     inkscape:window-height="996"
     inkscape:window-x="0"
     inkscape:window-y="0"
     inkscape:window-maximized="1"
     inkscape:current-layer="g26"><inkscape:grid
       id="grid1"
       units="mm"
       originx="0"
       originy="0"
       spacingx="0.99999998"
       spacingy="1"
       empcolor="#0099e5"
       empopacity="0.30196078"
       color="#0099e5"
       opacity="0.14901961"
       empspacing="5"
       dotted="false"
       gridanglex="30"
       gridanglez="30"
       visible="true" /></sodipodi:namedview><defs
     id="defs1"><rect
       x="113.38583"
       y="207.87401"
       width="188.97638"
       height="113.38582"
       id="rect22" /><marker
       style="overflow:visible"
       id="ColoredDot"
       refX="-2"
       refY="0"
       orient="auto"
       inkscape:stockid="Colored dot"
       markerWidth="1"
       markerHeight="1"
       viewBox="0 0 1 1"
       inkscape:isstock="true"
       inkscape:collect="always"
       preserveAspectRatio="xMidYMid"><path
         transform="scale(0.45)"
         style="fill:context-fill;fill-rule:evenodd;stroke:context-stroke;stroke-width:2"
         d="M 5,0 C 5,2.76 2.76,5 0,5 -2.76,5 -5,2.76 -5,0 c 0,-2.76 2.3,-5 5,-5 2.76,0 5,2.24 5,5 z"
         sodipodi:nodetypes="sssss"
         id="path20" /></marker></defs><g
     inkscape:label="Layer 1"
     inkscape:groupmode="layer"
     id="layer1"><g
       id="g18"
       transform="translate(-0.13532491,30.294187)"><rect
         style="fill:none;stroke:#212121;stroke-width:0.499999"
         id="rect1"
         width="90"
         height="24.999996"
         x="10"
         y="120" /><g
         id="g8"><rect
           style="fill:none;stroke:#212121;stroke-width:0.499999"
           id="rect7"
           width="10"
           height="15"
           x="20"
           y="124.99999" /><path
           style="fill:none;stroke:#212121;stroke-width:0.499999"
           d="M 25,139.99999 V 135 l -3,-5"
           id="path7" /><path
           style="fill:none;stroke:#212121;stroke-width:0.499999;marker-end:url(#ColoredDot)"
           d="m 25,124.99999 1e-6,3.00001"
           id="path8"
           sodipodi:nodetypes="cc" /><ellipse
           style="fill:#212121;stroke:#212121;stroke-width:0.499999"
           id="ellipse8"
           cx="25"
           cy="135"
           rx="1"
           ry="0.99999994" /></g><g
         id="g10"
         transform="translate(15.000001)"><rect
           style="fill:none;stroke:#212121;stroke-width:0.499999"
           id="rect8"
           width="10"
           height="15"
           x="20"
           y="124.99999" /><path
           style="fill:none;stroke:#212121;stroke-width:0.499999"
           d="M 25,139.99999 V 135 l -3,-5"
           id="path9" /><path
           style="fill:none;stroke:#212121;stroke-width:0.499999;marker-end:url(#ColoredDot)"
           d="m 25,124.99999 1e-6,3.00001"
           id="path10"
           sodipodi:nodetypes="cc" /><ellipse
           style="fill:#212121;stroke:#212121;stroke-width:0.499999"
           id="ellipse10"
           cx="25"
           cy="135"
           rx="1"
           ry="0.99999994" /></g><g
         id="g12"
         transform="translate(30.000001)"><rect
           style="fill:none;stroke:#212121;stroke-width:0.499999"
           id="rect10"
           width="10"
           height="15"
           x="20"
           y="124.99999" /><path
           style="fill:none;stroke:#212121;stroke-width:0.499999"
           d="M 25,139.99999 V 135 l -3,-5"
           id="path11" /><path
           style="fill:none;stroke:#212121;stroke-width:0.499999;marker-end:url(#ColoredDot)"
           d="m 25,124.99999 1e-6,3.00001"
           id="path12"
           sodipodi:nodetypes="cc" /><ellipse
           style="fill:#212121;stroke:#212121;stroke-width:0.499999"
           id="ellipse12"
           cx="25"
           cy="135"
           rx="1"
           ry="0.99999994" /></g><g
         id="g5"
         transform="translate(60.000002)"><rect
           style="fill:none;stroke:#212121;stroke-width:0.499999"
           id="rect2"
           width="10"
           height="15"
           x="20"
           y="124.99999" /><path
           style="fill:none;stroke:#212121;stroke-width:0.499999"
           d="M 25,139.99999 V 135 l -3,-5"
           id="path3" /><path
           style="fill:none;stroke:#212121;stroke-width:0.499999;marker-end:url(#ColoredDot)"
           d="m 25,124.99999 1e-6,3.00001"
           id="path4"
           sodipodi:nodetypes="cc" /><ellipse
           style="fill:#212121;stroke:#212121;stroke-width:0.499999"
           id="path5"
           cx="25"
           cy="135"
           rx="1"
           ry="0.99999994" /></g><ellipse
         style="fill:#212121;stroke:#212121;stroke-width:0.499999"
         id="ellipse13"
         cx="64.970833"
         cy="132.64516"
         rx="0.5"
         ry="0.49999997" /><ellipse
         style="fill:#212121;stroke:#212121;stroke-width:0.499999"
         id="ellipse14"
         cx="69.962891"
         cy="132.64516"
         rx="0.5"
         ry="0.49999997" /><ellipse
         style="fill:#212121;stroke:#212121;stroke-width:0.499999"
         id="path13"
         cx="74.954948"
         cy="132.64516"
         rx="0.5"
         ry="0.49999997" /></g><path
       style="fill:none;stroke:#212121;stroke-width:0.499999"
       d="m 29.864677,110.18584 10.000001,-15 h 30.000001 l 9.999998,15 z"
       id="path14"
       sodipodi:nodetypes="ccccc" /><path
       style="fill:none;stroke:#212121;stroke-width:1.41863;stroke-dasharray:none"
       d="m 39.864678,110.18584 v 40.25"
       id="path15" /><path
       style="fill:none;stroke:#212121;stroke-width:1.41863;stroke-dasharray:none"
       d="m 49.864676,110.18584 v 40.25"
       id="path16" /><path
       style="fill:none;stroke:#212121;stroke-width:1.41863;stroke-dasharray:none"
       d="m 59.864677,110.18584 v 40.25"
       id="path17" /><path
       style="fill:none;stroke:#212121;stroke-width:1.41863;stroke-dasharray:none"
       d="m 69.864678,110.18584 v 40.25"
       id="path18" /><text
       xml:space="preserve"
       style="font-size:3.175px;text-align:center;text-anchor:middle;fill:#212121;stroke:none;stroke-width:0.499999"
       x="-130.40417"
       y="38.324516"
       id="text19"
       transform="rotate(-90.00483)"><tspan
         sodipodi:role="line"
         id="tspan19"
         style="font-style:normal;font-variant:normal;font-weight:normal;font-stretch:normal;font-family:'CMU Typewriter Text';-inkscape-font-specification:'CMU Typewriter Text';fill:#212121;stroke:none;stroke-width:0.5"
         x="-130.40417"
         y="38.324516">SW[15:12]</tspan></text><text
       xml:space="preserve"
       style="font-size:3.175px;text-align:center;text-anchor:middle;fill:#212121;stroke:none;stroke-width:0.499999"
       x="-130.43727"
       y="48.528538"
       id="text20"
       transform="rotate(-90.00483)"><tspan
         sodipodi:role="line"
         id="tspan20"
         style="font-style:normal;font-variant:normal;font-weight:normal;font-stretch:normal;font-family:'CMU Typewriter Text';-inkscape-font-specification:'CMU Typewriter Text';fill:#212121;stroke:none;stroke-width:0.5"
         x="-130.43727"
         y="48.528538">SW[11:8]</tspan></text><text
       xml:space="preserve"
       style="font-size:3.175px;text-align:center;text-anchor:middle;fill:#212121;stroke:none;stroke-width:0.499999"
       x="-130.5027"
       y="58.46196"
       id="text21"
       transform="rotate(-90.00483)"><tspan
         sodipodi:role="line"
         id="tspan21"
         style="font-style:normal;font-variant:normal;font-weight:normal;font-stretch:normal;font-family:'CMU Typewriter Text';-inkscape-font-specification:'CMU Typewriter Text';fill:#212121;stroke:none;stroke-width:0.5"
         x="-130.5027"
         y="58.46196">SW[7:4]</tspan></text><text
       xml:space="preserve"
       style="font-size:3.175px;text-align:center;text-anchor:middle;fill:#212121;stroke:none;stroke-width:1;stroke-dasharray:none"
       x="-130.50356"
       y="68.568436"
       id="text39"
       transform="rotate(-90.00483)"><tspan
         sodipodi:role="line"
         id="tspan39"
         style="font-style:normal;font-variant:normal;font-weight:normal;font-stretch:normal;font-family:'CMU Typewriter Text';-inkscape-font-specification:'CMU Typewriter Text';fill:#212121;stroke:none;stroke-width:1;stroke-dasharray:none"
         x="-130.50356"
         y="68.568436">SW[3:0]</tspan></text><text
       xml:space="preserve"
       style="font-size:3.175px;text-align:center;text-anchor:middle;fill:#212121;stroke:none;stroke-width:1;stroke-dasharray:none"
       x="-141.4469"
       y="131.10277"
       id="text18"
       transform="rotate(-90.00483)"><tspan
         sodipodi:role="line"
         id="tspan18"
         style="font-style:normal;font-variant:normal;font-weight:normal;font-stretch:normal;font-family:'CMU Typewriter Text';-inkscape-font-specification:'CMU Typewriter Text';fill:#212121;stroke:none;stroke-width:1;stroke-dasharray:none"
         x="-141.4469"
         y="131.10277"> CLK_100MHZ</tspan></text><rect
       style="fill:none;stroke:#212121;stroke-width:0.499999"
       id="rect26"
       width="50"
       height="30.000002"
       x="29.864679"
       y="50.185841" /><text
       xml:space="preserve"
       transform="matrix(0.26458333,0,0,0.26458333,-7.6081086e-8,-17.857244)"
       id="text22"
       style="font-style:normal;font-variant:normal;font-weight:normal;font-stretch:normal;font-family:'CMU Typewriter Text';-inkscape-font-specification:'CMU Typewriter Text';text-align:center;white-space:pre;shape-inside:url(#rect22);display:inline;fill:none;stroke:#212121;stroke-width:1.88976" /><text
       xml:space="preserve"
       style="font-style:normal;font-variant:normal;font-weight:normal;font-stretch:normal;font-size:4.93889px;font-family:'CMU Typewriter Text';-inkscape-font-specification:'CMU Typewriter Text';text-align:center;text-anchor:middle;fill:#212121;stroke:none;stroke-width:0.499999"
       x="54.778248"
       y="63.632565"
       id="text23"><tspan
         sodipodi:role="line"
         id="tspan23"
         style="font-style:normal;font-variant:normal;font-weight:normal;font-stretch:normal;font-size:4.93889px;font-family:'CMU Sans Serif';-inkscape-font-specification:'CMU Sans Serif';stroke-width:0.5"
         x="54.778248"
         y="63.632565">BCD-2-7s</tspan><tspan
         sodipodi:role="line"
         style="font-style:normal;font-variant:normal;font-weight:normal;font-stretch:normal;font-size:4.93889px;font-family:'CMU Sans Serif';-inkscape-font-specification:'CMU Sans Serif';stroke-width:0.5"
         x="54.778248"
         y="69.929649"
         id="tspan24">converter</tspan></text><path
       style="fill:none;stroke:#212121;stroke-width:1;stroke-dasharray:none"
       d="m 54.864676,95.18584 v -15"
       id="path24" /><path
       style="fill:none;stroke:#212121;stroke-width:0.5;stroke-dasharray:none"
       d="m 51.864677,89.18584 5.999999,-3"
       id="path25" /><text
       xml:space="preserve"
       style="font-style:normal;font-variant:normal;font-weight:normal;font-stretch:normal;font-size:4.9389px;font-family:'CMU Sans Serif';-inkscape-font-specification:'CMU Sans Serif';text-align:center;text-anchor:middle;fill:#212121;stroke:none;stroke-width:1;stroke-dasharray:none"
       x="59.864674"
       y="89.185852"
       id="text31"><tspan
         sodipodi:role="line"
         id="tspan31"
         style="fill:#212121;stroke:none;stroke-width:1"
         x="59.864674"
         y="89.185852">4</tspan></text><text
       xml:space="preserve"
       style="font-style:normal;font-variant:normal;font-weight:normal;font-stretch:normal;font-size:4.9389px;font-family:'CMU Sans Serif';-inkscape-font-specification:'CMU Sans Serif';text-align:center;text-anchor:middle;fill:#212121;stroke:none;stroke-width:1;stroke-dasharray:none"
       x="155.11467"
       y="160.43585"
       id="text30"><tspan
         sodipodi:role="line"
         id="tspan30"
         style="fill:#212121;stroke:none;stroke-width:1"
         x="155.11467"
         y="160.43585">External</tspan><tspan
         sodipodi:role="line"
         style="fill:#212121;stroke:none;stroke-width:1"
         x="155.11467"
         y="166.60948"
         id="tspan38">clock</tspan></text><text
       xml:space="preserve"
       style="font-style:normal;font-variant:normal;font-weight:normal;font-stretch:normal;font-size:4.9389px;font-family:'CMU Sans Serif';-inkscape-font-specification:'CMU Sans Serif';text-align:center;text-anchor:middle;fill:#212121;stroke:none;stroke-width:1;stroke-dasharray:none"
       x="106.81128"
       y="87.83638"
       id="text25"><tspan
         sodipodi:role="line"
         id="tspan25"
         style="fill:#212121;stroke:none;stroke-width:1"
         x="106.81128"
         y="87.83638">2</tspan></text><path
       style="fill:none;stroke:#212121;stroke-width:0.5;stroke-dasharray:none"
       d="m 97.114675,41.727508 5.999995,-3"
       id="path25-9" /><text
       xml:space="preserve"
       style="font-style:normal;font-variant:normal;font-weight:normal;font-stretch:normal;font-size:4.9389px;font-family:'CMU Sans Serif';-inkscape-font-specification:'CMU Sans Serif';text-align:center;text-anchor:middle;fill:#212121;stroke:none;stroke-width:1;stroke-dasharray:none"
       x="105.11468"
       y="41.72752"
       id="text25-7"><tspan
         sodipodi:role="line"
         id="tspan25-3"
         style="fill:#212121;stroke:none;stroke-width:1"
         x="105.11468"
         y="41.72752">4</tspan></text><path
       style="fill:none;stroke:#212121;stroke-width:0.5;stroke-dasharray:none"
       d="m 105.28969,93.43585 4.82498,-6"
       id="path25-1"
       sodipodi:nodetypes="cc" /><path
       style="fill:none;stroke:#212121;stroke-width:1;stroke-dasharray:none"
       d="m 55.114676,50.435847 v -15"
       id="path24-9" /><path
       style="fill:none;stroke:#212121;stroke-width:0.5;stroke-dasharray:none"
       d="m 52.114677,44.435847 5.999999,-3"
       id="path25-3" /><text
       xml:space="preserve"
       style="font-style:normal;font-variant:normal;font-weight:normal;font-stretch:normal;font-size:4.9389px;font-family:'CMU Sans Serif';-inkscape-font-specification:'CMU Sans Serif';text-align:center;text-anchor:middle;fill:#212121;stroke:none;stroke-width:1;stroke-dasharray:none"
       x="60.114674"
       y="44.435856"
       id="text25-6"><tspan
         sodipodi:role="line"
         id="tspan25-0"
         style="fill:#212121;stroke:none;stroke-width:1"
         x="60.114674"
         y="44.435856">7</tspan></text><g
       id="g26"
       transform="translate(17.250002,59.749995)"><rect
         style="fill:none;stroke:#212121;stroke-width:0.499999"
         id="rect21"
         width="65"
         height="25"
         x="5.1146746"
         y="-49.564152" /><g
         id="g25"
         transform="translate(-8.8969273,-42.664692)"
         style="fill:#e86a58"><path
           style="fill:#e86a58;stroke-width:0.0248957"
           d="m 31.646925,12.914697 c -0.350113,-0.124943 -0.576083,-0.471293 -0.546657,-0.837876 0.02342,-0.291823 0.198541,-0.548132 0.463345,-0.678174 0.120022,-0.05894 0.171226,-0.06897 0.352063,-0.06897 0.180837,0 0.232041,0.01003 0.352063,0.06897 0.164033,0.08056 0.327258,0.247469 0.403008,0.412121 0.08352,0.181546 0.07667,0.493544 -0.01493,0.680081 -0.08121,0.165366 -0.249161,0.328813 -0.412121,0.401065 -0.164918,0.07312 -0.427608,0.08315 -0.596768,0.02278 z m -9.322703,-0.34682 -0.317075,-0.31778 0.305346,-0.304614 0.305346,-0.304612 h 2.8381 2.8381 l 0.32955,0.33023 0.32955,0.33023 -0.292926,0.292163 -0.292927,0.292164 h -2.862994 -2.862995 z m 6.54968,-0.821083 -0.315204,-0.317537 0.223713,-2.5020213 0.223713,-2.5020211 0.340322,-0.34228 0.340322,-0.342279 0.267999,0.267167 0.267999,0.267169 -4.99e-4,0.124903 c -2.72e-4,0.0687 -0.100293,1.238744 -0.222266,2.6001051 l -0.221768,2.4752033 -0.294564,0.294564 -0.294564,0.294564 -0.315204,-0.317537 z m -7.397266,-0.0265 -0.293523,-0.29429 0.215973,-2.4381533 0.215973,-2.4381531 0.338838,-0.34228 0.338839,-0.34228 0.267999,0.267168 c 0.239273,0.238531 0.268,0.276553 0.268011,0.354728 7e-6,0.04816 -0.0961,1.168657 -0.213562,2.4899981 l -0.213576,2.4024383 -0.315725,0.317556 -0.315725,0.317558 z m 1.333048,-5.8120234 -0.279643,-0.280438 0.342611,-0.341955 0.34261,-0.341955 h 2.838197 2.838198 l 0.279643,0.280439 0.279642,0.280438 -0.34261,0.341955 -0.342611,0.341955 h -2.838197 -2.838197 z m -0.771665,-0.771661 c -0.225035,-0.225803 -0.254944,-0.265938 -0.25523,-0.342486 -1.75e-4,-0.04769 0.09608,-1.173409 0.213909,-2.501596 l 0.214233,-2.41488595 0.352096,-0.354713 0.352095,-0.35471304 0.255555,0.25468504 c 0.239465,0.238651 0.255555,0.260983 0.255567,0.354713 7e-6,0.05501 -0.09609,1.181125 -0.213559,2.50246595 l -0.213571,2.402438 -0.353095,0.354934 -0.353094,0.354934 z m 7.393929,-0.124586 c -0.246832,-0.247675 -0.254815,-0.259164 -0.255202,-0.367279 -2.26e-4,-0.06138 0.09594,-1.198304 0.213689,-2.526492 l 0.214089,-2.41488495 0.334004,-0.335967 0.334004,-0.33596704 0.278431,0.278431 0.278431,0.27843104 -0.221557,2.49055895 -0.221555,2.49056 -0.349766,0.349141 -0.349765,0.349141 z m -5.999871,-5.80070899 -0.279643,-0.28043801 0.342611,-0.341955 0.34261,-0.341955 h 2.825768 2.825768 l 0.27305,0.273899 0.273049,0.273899 -0.347828,0.34849401 -0.347827,0.34849504 H 26.525677 23.71172 Z"
           id="path3074"
           inkscape:connector-curvature="0" /><path
           style="fill:#e86a58;stroke-width:0.0248957"
           d="m 44.683887,12.914697 c -0.350113,-0.124943 -0.576083,-0.471293 -0.546657,-0.837876 0.02342,-0.291823 0.198541,-0.548132 0.463345,-0.678174 0.120022,-0.05894 0.171226,-0.06897 0.352063,-0.06897 0.180837,0 0.232041,0.01003 0.352063,0.06897 0.164033,0.08056 0.327258,0.247469 0.403008,0.412121 0.08352,0.181546 0.07667,0.493544 -0.01493,0.680081 -0.08121,0.165366 -0.249161,0.328813 -0.412121,0.401065 -0.164918,0.07312 -0.427608,0.08315 -0.596768,0.02278 z m -9.322703,-0.34682 -0.317075,-0.31778 0.305346,-0.304614 0.305346,-0.304612 h 2.8381 2.8381 l 0.32955,0.33023 0.32955,0.33023 -0.292926,0.292163 -0.292927,0.292164 h -2.862994 -2.862995 z m 6.54968,-0.821083 -0.315204,-0.317537 0.223713,-2.5020213 0.223713,-2.5020211 0.340322,-0.3422799 0.340322,-0.342279 0.267999,0.267167 0.267999,0.267169 -4.99e-4,0.1249029 c -2.72e-4,0.0687 -0.100293,1.2387441 -0.222266,2.6001051 l -0.221768,2.4752033 -0.294564,0.294564 -0.294564,0.294564 z m -7.397266,-0.0265 -0.293523,-0.29429 0.215973,-2.4381533 0.215973,-2.438153 0.338838,-0.34228 0.338839,-0.34228 0.267999,0.267168 c 0.239273,0.238531 0.268,0.276553 0.268011,0.354728 7e-6,0.04816 -0.0961,1.168657 -0.213562,2.489998 L 35.43857,11.37947 35.122845,11.697026 34.80712,12.014584 Z m 1.333048,-5.8120233 -0.279643,-0.2804381 0.342611,-0.341955 0.34261,-0.341955 h 2.838197 2.838198 l 0.279643,0.280439 0.279642,0.280438 -0.34261,0.341955 -0.342611,0.341955 h -2.838197 -2.838197 z m -0.771665,-0.771661 c -0.225035,-0.225803 -0.254944,-0.2659381 -0.25523,-0.342486 -1.75e-4,-0.04769 0.09608,-1.173409 0.213909,-2.501596 l 0.214233,-2.4148859 0.352096,-0.354713 0.352095,-0.3547131 0.255555,0.2546851 c 0.239465,0.238651 0.255555,0.260983 0.255567,0.354713 7e-6,0.05501 -0.09609,1.181125 -0.213559,2.5024659 l -0.213571,2.402438 -0.353095,0.354934 -0.353094,0.354934 z m 7.393929,-0.124586 c -0.246832,-0.247675 -0.254815,-0.259164 -0.255202,-0.367279 -2.26e-4,-0.06138 0.09594,-1.198304 0.213689,-2.526492 l 0.214089,-2.4148849 0.334004,-0.335967 0.334004,-0.3359671 0.278431,0.278431 0.278431,0.2784311 -0.221557,2.4905589 -0.221555,2.49056 -0.349766,0.349141 -0.349765,0.349141 z m -5.999871,-5.800709 -0.279643,-0.280438 0.342611,-0.341955 0.34261,-0.341955 h 2.825768 2.825768 l 0.27305,0.273899 0.273049,0.273899 -0.347828,0.348494 -0.347827,0.3484951 h -2.813958 -2.813957 z"
           id="path3074-3"
           inkscape:connector-curvature="0" /><path
           style="fill:#e86a58;stroke-width:0.0248957"
           d="m 57.720848,12.914697 c -0.350113,-0.124943 -0.576083,-0.471293 -0.546657,-0.837876 0.02342,-0.291823 0.198541,-0.548132 0.463345,-0.678174 0.120022,-0.05894 0.171226,-0.06897 0.352063,-0.06897 0.180837,0 0.232041,0.01003 0.352063,0.06897 0.164033,0.08056 0.327258,0.247469 0.403008,0.412121 0.08352,0.181546 0.07667,0.493544 -0.01493,0.680081 -0.08121,0.165366 -0.249161,0.328813 -0.412121,0.401065 -0.164918,0.07312 -0.427608,0.08315 -0.596768,0.02278 z m -9.322703,-0.34682 -0.317075,-0.31778 0.305346,-0.304614 0.305346,-0.304612 h 2.8381 2.8381 l 0.32955,0.33023 0.32955,0.33023 -0.292926,0.292163 -0.292927,0.292164 H 51.578215 48.71522 Z m 6.54968,-0.821083 -0.315204,-0.317537 0.223713,-2.5020209 0.223713,-2.5020211 0.340322,-0.34228 0.340322,-0.342279 0.267999,0.267167 0.267999,0.267169 -4.99e-4,0.124903 C 56.295918,6.468595 56.195897,7.638639 56.073924,9 l -0.221768,2.475203 -0.294564,0.294564 -0.294564,0.294564 z m -7.397266,-0.0265 -0.293523,-0.29429 0.215973,-2.438153 0.215973,-2.438153 0.338838,-0.34228 0.338839,-0.34228 0.267999,0.267168 c 0.239273,0.238531 0.268,0.276553 0.268011,0.354728 7e-6,0.04816 -0.0961,1.168657 -0.213562,2.489998 l -0.213576,2.402438 -0.315725,0.317556 -0.315725,0.317558 z m 1.333048,-5.812023 -0.279643,-0.280438 0.342611,-0.341955 0.34261,-0.341955 h 2.838197 2.838198 L 55.245223,5.224362 55.524865,5.5048 55.182255,5.846755 54.839644,6.18871 H 52.001447 49.16325 Z M 48.111942,5.13661 c -0.225035,-0.225803 -0.254944,-0.265938 -0.25523,-0.342486 -1.75e-4,-0.04769 0.09608,-1.173409 0.213909,-2.5015963 l 0.214233,-2.41488583 0.352096,-0.354713 0.352095,-0.35471312 0.255555,0.25468512 c 0.239465,0.238651 0.255555,0.260983 0.255567,0.3547129 7e-6,0.05501 -0.09609,1.1811251 -0.213559,2.50246593 L 49.073037,4.682518 48.719942,5.037452 48.366848,5.392386 Z M 55.505871,5.012024 C 55.259039,4.764349 55.251056,4.75286 55.250669,4.644745 c -2.26e-4,-0.06138 0.09594,-1.198304 0.213689,-2.5264923 l 0.214089,-2.41488483 0.334004,-0.335967 0.334004,-0.33596712 0.278431,0.27843102 0.278431,0.2784311 L 56.68176,2.0788547 56.460205,4.569415 56.110439,4.918556 55.760674,5.267697 Z M 49.506,-0.78868525 49.226357,-1.0691233 l 0.342611,-0.341955 0.34261,-0.341955 h 2.825768 2.825768 l 0.27305,0.273899 0.273049,0.273899 -0.347828,0.34849405 -0.347827,0.34849512 H 52.5996 49.785643 Z"
           id="path3074-9"
           inkscape:connector-curvature="0" /><path
           style="fill:#e86a58;stroke-width:0.0248957"
           d="m 70.75781,12.914697 c -0.350113,-0.124943 -0.576083,-0.471293 -0.546657,-0.837876 0.02342,-0.291823 0.198541,-0.548132 0.463345,-0.678174 0.120022,-0.05894 0.171226,-0.06897 0.352063,-0.06897 0.180837,0 0.232041,0.01003 0.352063,0.06897 0.164033,0.08056 0.327258,0.247469 0.403008,0.412121 0.08352,0.181546 0.07667,0.493544 -0.01493,0.680081 -0.08121,0.165366 -0.249161,0.328813 -0.412121,0.401065 -0.164918,0.07312 -0.427608,0.08315 -0.596768,0.02278 z m -9.322703,-0.34682 -0.317075,-0.31778 0.305346,-0.304614 0.305346,-0.304612 h 2.8381 2.8381 l 0.32955,0.33023 0.32955,0.33023 -0.292926,0.292163 -0.292927,0.292164 h -2.862994 -2.862995 z m 6.54968,-0.821083 -0.315204,-0.317537 0.223713,-2.502021 0.223713,-2.502021 0.340322,-0.34228 0.340322,-0.342279 0.267999,0.267167 0.267999,0.267169 -4.99e-4,0.124903 C 69.33288,6.468595 69.232859,7.638639 69.110886,9 l -0.221768,2.475203 -0.294564,0.294564 -0.294564,0.294564 z m -7.397266,-0.0265 -0.293523,-0.29429 0.215973,-2.438153 0.215973,-2.438153 0.338838,-0.34228 0.338839,-0.34228 0.267999,0.267168 c 0.239273,0.238531 0.268,0.276553 0.268011,0.354728 7e-6,0.04816 -0.0961,1.168657 -0.213562,2.489998 l -0.213576,2.402438 -0.315725,0.317556 -0.315725,0.317558 z m 1.333048,-5.812023 -0.279643,-0.280438 0.342611,-0.341955 0.34261,-0.341955 h 2.838197 2.838198 L 68.282185,5.224362 68.561827,5.5048 68.219217,5.846755 67.876606,6.18871 H 65.038409 62.200212 Z M 61.148904,5.13661 C 60.923869,4.910807 60.89396,4.870672 60.893674,4.794124 c -1.75e-4,-0.04769 0.09608,-1.173409 0.213909,-2.5015962 l 0.214233,-2.41488578 0.352096,-0.354713 0.352095,-0.35471312 0.255555,0.25468512 c 0.239465,0.238651 0.255555,0.260983 0.255567,0.354713 7e-6,0.05501 -0.09609,1.181125 -0.213559,2.50246578 L 62.109999,4.682518 61.756904,5.037452 61.40381,5.392386 Z M 68.542833,5.012024 C 68.296001,4.764349 68.288018,4.75286 68.287631,4.644745 68.287405,4.583365 68.383571,3.446441 68.50132,2.1182528 l 0.214089,-2.41488478 0.334004,-0.335967 0.334004,-0.33596712 0.278431,0.27843102 0.278431,0.2784311 -0.221557,2.49055878 -0.221555,2.4905602 -0.349766,0.349141 -0.349765,0.349141 z m -5.999871,-5.8007091 -0.279643,-0.2804381 0.342611,-0.341955 0.34261,-0.341955 h 2.825768 2.825768 l 0.27305,0.273899 0.273049,0.273899 -0.347828,0.3484941 -0.347827,0.34849512 h -2.813958 -2.813957 z"
           id="path3074-3-1"
           inkscape:connector-curvature="0" /></g></g><g
       id="g33"
       transform="translate(10.36467,-34.81415)"><rect
         style="fill:none;stroke:#212121;stroke-width:0.499999"
         id="rect31"
         width="34.999996"
         height="20.000004"
         x="105.00001"
         y="114.99999" /><text
         xml:space="preserve"
         style="font-style:normal;font-variant:normal;font-weight:normal;font-stretch:normal;font-size:4.9389px;font-family:'CMU Sans Serif';-inkscape-font-specification:'CMU Sans Serif';text-align:center;text-anchor:middle;fill:#212121;stroke:none;stroke-width:0.499999;stroke-dasharray:none"
         x="122.37653"
         y="123.62698"
         id="text33"><tspan
           sodipodi:role="line"
           id="tspan32"
           style="stroke-width:0.5"
           x="122.37653"
           y="123.62698">Counter</tspan><tspan
           sodipodi:role="line"
           style="stroke-width:0.5"
           x="122.37653"
           y="129.80061"
           id="tspan33">0 to 3</tspan></text></g><rect
       style="fill:none;stroke:#212121;stroke-width:0.499999"
       id="rect25"
       width="34.999996"
       height="20.000004"
       x="115.08552"
       y="110.72751" /><text
       xml:space="preserve"
       style="font-style:normal;font-variant:normal;font-weight:normal;font-stretch:normal;font-size:4.9389px;font-family:'CMU Sans Serif';-inkscape-font-specification:'CMU Sans Serif';text-align:center;text-anchor:middle;fill:#212121;stroke:none;stroke-width:0.499999;stroke-dasharray:none"
       x="132.9912"
       y="127.7478"
       id="text26"><tspan
         sodipodi:role="line"
         style="stroke-width:0.5"
         x="132.9912"
         y="127.7478"
         id="tspan34">Clock divider</tspan></text><g
       id="g28"
       transform="translate(-14.885327,-39.564153)"><rect
         style="fill:none;stroke:#212121;stroke-width:0.499999"
         id="rect25-3"
         width="22.499996"
         height="20"
         x="103.75001"
         y="95" /><text
         xml:space="preserve"
         style="font-style:normal;font-variant:normal;font-weight:normal;font-stretch:normal;font-size:4.9389px;font-family:'CMU Sans Serif';-inkscape-font-specification:'CMU Sans Serif';text-align:center;text-anchor:middle;fill:#212121;stroke:none;stroke-width:0.499999;stroke-dasharray:none"
         x="114.9358"
         y="103.66897"
         id="text26-7"><tspan
           sodipodi:role="line"
           style="stroke-width:0.5"
           x="114.9358"
           y="103.66897"
           id="tspan27-9">One hot</tspan><tspan
           sodipodi:role="line"
           style="stroke-width:0.5"
           x="114.9358"
           y="109.84259"
           id="tspan28">encoder</tspan></text></g><path
       style="fill:none;stroke:#212121;stroke-width:1;stroke-dasharray:none"
       d="m 115.11467,90.43585 h -15 v 12.99999 H 75.114676"
       id="path27" /><path
       style="fill:none;stroke:#212121;stroke-width:1;stroke-dasharray:none"
       d="m 100.11467,90.43585 v -15"
       id="path28"
       sodipodi:nodetypes="cc" /><path
       style="fill:none;stroke:#212121;stroke-width:1;stroke-dasharray:none"
       d="M 100.11467,55.435847 V 23.435848 H 87.114676"
       id="path29"
       sodipodi:nodetypes="ccc" /><text
       xml:space="preserve"
       style="font-style:normal;font-variant:normal;font-weight:normal;font-stretch:normal;font-size:4.9389px;font-family:'CMU Sans Serif';-inkscape-font-specification:'CMU Sans Serif';text-align:center;text-anchor:middle;fill:none;stroke:#212121;stroke-width:1;stroke-dasharray:none"
       x="116"
       y="129"
       id="text29"><tspan
         sodipodi:role="line"
         id="tspan29"
         style="stroke-width:1"
         x="116"
         y="129"></tspan></text><g
       id="g36"
       transform="translate(-9.8853254,-44.56415)"><circle
         style="fill:none;stroke:#212121;stroke-width:0.5;stroke-dasharray:none"
         id="path30"
         cx="143"
         cy="207.60829"
         r="12.5" /><path
         style="fill:none;stroke:#212121;stroke-width:1;stroke-dasharray:none"
         d="m 135.5,211.10829 h 4 v -7 h 5 2 v 7 h 4"
         id="path31"
         sodipodi:nodetypes="ccccccc" /></g><path
       style="fill:none;stroke:#212121;stroke-width:1;stroke-dasharray:none"
       d="M 133.11467,150.54414 V 130.72751"
       id="path37"
       sodipodi:nodetypes="cc" /><path
       style="fill:none;stroke:#212121;stroke-width:1;stroke-dasharray:none"
       d="m 132.86467,100.18585 v 10.54166"
       id="path38"
       sodipodi:nodetypes="cc" /></g></svg>
